<svg xmlns="http://www.w3.org/2000/svg" viewBox="0 0 751.25 154.87"><defs><style>.cls-1{fill:#FFFFFF;}</style></defs><title>Asset 1</title><g id="Layer_2" data-name="Layer 2"><g id="Layer_1-2" data-name="Layer 1"><path class="cls-1" d="M422,122.73a10.09,10.09,0,1,0,10-10,10.07,10.07,0,0,0-10,10m-44.42-18c0-9.7,5.95-15.21,13.45-15.21s13.34,5.4,13.34,15.1S398.52,120.2,391,120.2c-7.72,0-13.45-5.74-13.45-15.44m41-52.58H404.15v31c-1.55-2.87-6-6.73-15.33-6.73-15.32,0-26,12.46-26,28.33,0,16.43,11,28.55,26.45,28.55,7.28,0,12.79-3.3,15.22-7.6A37.51,37.51,0,0,0,405,132h14c-.22-2.2-.44-6.17-.44-9.81Zm-71.33,60.63c-1.76,4.85-5.51,8.27-12.34,8.27-7.28,0-13.34-5.18-13.67-12.35h38.8c0-.22.22-2.42.22-4.52,0-17.41-10-28.11-26.78-28.11-13.89,0-26.68,11.25-26.68,28.55,0,18.3,13.12,29,28,29,13.34,0,21.93-7.83,24.69-17.2ZM321.58,98.7A11.73,11.73,0,0,1,333.71,88c8.37,0,11.9,5.29,12.12,10.69ZM295.79,61.55H282.56v7.61c0,4.85-2.65,8.6-8.38,8.6h-2.76v13h9.81V116c0,10.47,6.62,16.75,17.2,16.75a21.79,21.79,0,0,0,8.27-1.32V119.31a21.21,21.21,0,0,1-4.52.45c-4.19,0-6.39-1.55-6.39-6.29V90.76H306.7v-13H295.79Zm-27.23,16a33.51,33.51,0,0,0-3.42-.22c-4.63,0-12.12,1.32-15.43,8.48v-8H235.49V132h14.66v-24.8c0-11.69,6.5-15.33,14-15.33a21.47,21.47,0,0,1,4.41.45ZM204.29,76.1c-16.2,0-28.44,12-28.44,28.77s12.24,28.78,28.44,28.78,28.44-12.13,28.44-28.78S220.5,76.1,204.29,76.1m0,44.21c-7.16,0-13.78-5.3-13.78-15.44s6.62-15.43,13.78-15.43,13.78,5.18,13.78,15.43-6.61,15.44-13.78,15.44M171.88,72.46c-1.76-8.81-9-20.28-28-20.28-14.77,0-27.22,10.58-27.22,24.47,0,11.8,8,19.85,20.5,22.38l10.91,2.21c6.07,1.21,9.48,4.74,9.48,9.26,0,5.51-4.52,9.59-12.67,9.59-11,0-16.43-7-17.09-14.67l-14.11,3.75c1.21,11.14,10.36,24.48,31.09,24.48C163,133.65,173,121.52,173,109.5c0-11-7.61-20.28-21.83-23l-10.91-2.09c-5.74-1.1-8.49-4.52-8.49-8.82,0-5.18,4.85-9.92,12.23-9.92,9.92,0,13.45,6.72,14.22,11Z"/><path class="cls-1" d="M89.66,93.61,75.32,31.69l.21-.28h0a6.56,6.56,0,0,1,11.75,3.75ZM64.34,10A8.61,8.61,0,0,0,48.27,8.26h0a.59.59,0,0,1,0,.08l0,0a19.75,19.75,0,0,0-2,7L78.69,67.47Zm8,59L30.52,4.5a9.4,9.4,0,0,0-12.9-3.1A9,9,0,0,0,13.57,8h0s0,.07,0,.1a.09.09,0,0,1,0,0C11.72,20.6,26.8,43.32,26.8,43.32L38.13,60.75a50.26,50.26,0,0,1,6-.38,49.73,49.73,0,0,1,17.4,3.15l-1.22,5.8A44.29,44.29,0,0,0,0,107.43H20.61a23.75,23.75,0,1,1,.08,6.26H0a44.3,44.3,0,0,0,88.49-3.13A45.79,45.79,0,0,0,84.1,91.31,215.21,215.21,0,0,0,72.29,69Z"/><path class="cls-1" d="M467.29,102.39h-7.64v29H444.9V56.05h29.39c14.65,0,24,10.1,24,23.17,0,10.52-6.16,18.5-16,21.37l16.13,30.82H482Zm4.25-12.65c7.42,0,11.77-4.25,11.77-10.41,0-6.38-4.35-10.53-11.77-10.53H459.65V89.74Z"/><path class="cls-1" d="M503,131.41V56.05h47.11V69.87H517.59V87.09H547v13.07h-29.4v17.43h32.47v13.82Z"/><path class="cls-1" d="M602.7,114.19H572.14l-6.26,17.22H550.39l28.86-75.36h17l28.65,75.36H609ZM577,100.8h20.8l-10.4-28.49Z"/><path class="cls-1" d="M618.22,94.08c0-24,18.15-39.33,38.31-39.33,20.8,0,31.51,12.76,34.49,25l-13.8,4.36c-1.8-7.23-7.64-15.2-20.69-15.2-11.25,0-23.13,8.08-23.13,25.19,0,16,11.24,24.88,23.34,24.88,12.84,0,19.1-8.4,21.12-15.42l13.69,4.15c-2.87,11.58-13.69,25.62-34.81,25.62S618.22,118.1,618.22,94.08Z"/><path class="cls-1" d="M727.49,70v61.44H712.74V70H689V56.05h62.28V70Z"/></g></g></svg>